<?xml version="1.0" encoding="UTF-8" standalone="no"?>
<!DOCTYPE svg PUBLIC "-//W3C//DTD SVG 1.1//EN"
 "http://www.w3.org/Graphics/SVG/1.1/DTD/svg11.dtd">
<!-- Generated by graphviz version 2.43.0 (0)
 -->
<!-- Title: ast Pages: 1 -->
<svg width="493pt" height="584pt"
 viewBox="0.00 0.00 493.00 584.00" xmlns="http://www.w3.org/2000/svg" xmlns:xlink="http://www.w3.org/1999/xlink">
<g id="graph0" class="graph" transform="scale(1 1) rotate(0) translate(4 580)">
<title>ast</title>
<polygon fill="white" stroke="transparent" points="-4,4 -4,-580 489,-580 489,4 -4,4"/>
<!-- N0 -->
<g id="node1" class="node">
<title>N0</title>
<polygon fill="none" stroke="black" points="208,-576 130,-576 130,-540 208,-540 208,-576"/>
<text text-anchor="middle" x="169" y="-554.3" font-family="Times,serif" font-size="14.00">program</text>
</g>
<!-- N1 -->
<g id="node10" class="node">
<title>N1</title>
<polygon fill="none" stroke="black" points="196.5,-468 141.5,-468 141.5,-432 196.5,-432 196.5,-468"/>
<text text-anchor="middle" x="169" y="-446.3" font-family="Times,serif" font-size="14.00">while</text>
</g>
<!-- N0&#45;&gt;N1 -->
<g id="edge12" class="edge">
<title>N0&#45;&gt;N1</title>
<path fill="none" stroke="black" d="M169,-539.97C169,-523.38 169,-497.88 169,-478.43"/>
<polygon fill="black" stroke="black" points="172.5,-478.34 169,-468.34 165.5,-478.34 172.5,-478.34"/>
</g>
<!-- N3 -->
<g id="node2" class="node">
<title>N3</title>
<polygon fill="none" stroke="black" points="56,-144 0,-144 0,-108 56,-108 56,-144"/>
<text text-anchor="middle" x="28" y="-122.3" font-family="Times,serif" font-size="14.00">Idcall</text>
</g>
<!-- x -->
<g id="node11" class="node">
<title>x</title>
<ellipse fill="none" stroke="black" cx="194" cy="-18" rx="27" ry="18"/>
<text text-anchor="middle" x="194" y="-14.3" font-family="Times,serif" font-size="14.00">x</text>
</g>
<!-- N3&#45;&gt;x -->
<g id="edge1" class="edge">
<title>N3&#45;&gt;x</title>
<path fill="none" stroke="black" d="M54.67,-107.97C85.37,-88.37 135.53,-56.34 166.55,-36.53"/>
<polygon fill="black" stroke="black" points="168.59,-39.38 175.14,-31.04 164.83,-33.48 168.59,-39.38"/>
</g>
<!-- N4 -->
<g id="node3" class="node">
<title>N4</title>
<polygon fill="none" stroke="black" points="133,-252 79,-252 79,-216 133,-216 133,-252"/>
<text text-anchor="middle" x="106" y="-230.3" font-family="Times,serif" font-size="14.00">0</text>
</g>
<!-- N2 -->
<g id="node4" class="node">
<title>N2</title>
<polygon fill="none" stroke="black" points="133,-360 79,-360 79,-324 133,-324 133,-360"/>
<text text-anchor="middle" x="106" y="-338.3" font-family="Times,serif" font-size="14.00">&gt;=</text>
</g>
<!-- N2&#45;&gt;N3 -->
<g id="edge2" class="edge">
<title>N2&#45;&gt;N3</title>
<path fill="none" stroke="black" d="M89.82,-323.81C74.96,-306.93 53.68,-279.73 43,-252 30.69,-220.05 27.83,-180.41 27.46,-154.44"/>
<polygon fill="black" stroke="black" points="30.96,-154.21 27.44,-144.21 23.96,-154.22 30.96,-154.21"/>
</g>
<!-- N2&#45;&gt;N4 -->
<g id="edge3" class="edge">
<title>N2&#45;&gt;N4</title>
<path fill="none" stroke="black" d="M106,-323.97C106,-307.38 106,-281.88 106,-262.43"/>
<polygon fill="black" stroke="black" points="109.5,-262.34 106,-252.34 102.5,-262.34 109.5,-262.34"/>
</g>
<!-- N6 -->
<g id="node5" class="node">
<title>N6</title>
<polygon fill="none" stroke="black" points="261,-252 205,-252 205,-216 261,-216 261,-252"/>
<text text-anchor="middle" x="233" y="-230.3" font-family="Times,serif" font-size="14.00">Idcall</text>
</g>
<!-- N6&#45;&gt;x -->
<g id="edge4" class="edge">
<title>N6&#45;&gt;x</title>
<path fill="none" stroke="black" d="M229.87,-215.85C223.11,-178.74 207.08,-90.75 198.93,-46.05"/>
<polygon fill="black" stroke="black" points="202.32,-45.15 197.09,-35.94 195.44,-46.4 202.32,-45.15"/>
</g>
<!-- N8 -->
<g id="node6" class="node">
<title>N8</title>
<polygon fill="none" stroke="black" points="359,-144 303,-144 303,-108 359,-108 359,-144"/>
<text text-anchor="middle" x="331" y="-122.3" font-family="Times,serif" font-size="14.00">Idcall</text>
</g>
<!-- N8&#45;&gt;x -->
<g id="edge5" class="edge">
<title>N8&#45;&gt;x</title>
<path fill="none" stroke="black" d="M308.99,-107.97C284.52,-89.04 245.08,-58.52 219.35,-38.61"/>
<polygon fill="black" stroke="black" points="221.24,-35.65 211.19,-32.3 216.95,-41.19 221.24,-35.65"/>
</g>
<!-- N9 -->
<g id="node7" class="node">
<title>N9</title>
<polygon fill="none" stroke="black" points="485,-144 431,-144 431,-108 485,-108 485,-144"/>
<text text-anchor="middle" x="458" y="-122.3" font-family="Times,serif" font-size="14.00">1</text>
</g>
<!-- N7 -->
<g id="node8" class="node">
<title>N7</title>
<polygon fill="none" stroke="black" points="387,-252 333,-252 333,-216 387,-216 387,-252"/>
<text text-anchor="middle" x="360" y="-230.3" font-family="Times,serif" font-size="14.00">&#45;</text>
</g>
<!-- N7&#45;&gt;N8 -->
<g id="edge6" class="edge">
<title>N7&#45;&gt;N8</title>
<path fill="none" stroke="black" d="M355.34,-215.97C350.78,-199.3 343.76,-173.65 338.43,-154.16"/>
<polygon fill="black" stroke="black" points="341.76,-153.06 335.74,-144.34 335.01,-154.91 341.76,-153.06"/>
</g>
<!-- N7&#45;&gt;N9 -->
<g id="edge7" class="edge">
<title>N7&#45;&gt;N9</title>
<path fill="none" stroke="black" d="M375.75,-215.97C391.79,-198.61 416.86,-171.5 435.1,-151.77"/>
<polygon fill="black" stroke="black" points="437.75,-154.06 441.97,-144.34 432.61,-149.31 437.75,-154.06"/>
</g>
<!-- N5 -->
<g id="node9" class="node">
<title>N5</title>
<polygon fill="none" stroke="black" points="260,-360 206,-360 206,-324 260,-324 260,-360"/>
<text text-anchor="middle" x="233" y="-338.3" font-family="Times,serif" font-size="14.00">=</text>
</g>
<!-- N5&#45;&gt;N6 -->
<g id="edge8" class="edge">
<title>N5&#45;&gt;N6</title>
<path fill="none" stroke="black" d="M233,-323.97C233,-307.38 233,-281.88 233,-262.43"/>
<polygon fill="black" stroke="black" points="236.5,-262.34 233,-252.34 229.5,-262.34 236.5,-262.34"/>
</g>
<!-- N5&#45;&gt;N7 -->
<g id="edge9" class="edge">
<title>N5&#45;&gt;N7</title>
<path fill="none" stroke="black" d="M253.4,-323.97C274.48,-306.38 307.54,-278.78 331.26,-258.99"/>
<polygon fill="black" stroke="black" points="333.79,-261.44 339.22,-252.34 329.3,-256.06 333.79,-261.44"/>
</g>
<!-- N1&#45;&gt;N2 -->
<g id="edge10" class="edge">
<title>N1&#45;&gt;N2</title>
<path fill="none" stroke="black" d="M158.88,-431.97C148.79,-414.99 133.16,-388.7 121.51,-369.09"/>
<polygon fill="black" stroke="black" points="124.42,-367.15 116.31,-360.34 118.41,-370.73 124.42,-367.15"/>
</g>
<!-- N1&#45;&gt;N5 -->
<g id="edge11" class="edge">
<title>N1&#45;&gt;N5</title>
<path fill="none" stroke="black" d="M179.28,-431.97C189.53,-414.99 205.41,-388.7 217.25,-369.09"/>
<polygon fill="black" stroke="black" points="220.36,-370.71 222.53,-360.34 214.37,-367.09 220.36,-370.71"/>
</g>
</g>
</svg>
