<?xml version="1.0" encoding="UTF-8" standalone="no"?>
<!DOCTYPE svg PUBLIC "-//W3C//DTD SVG 1.1//EN"
 "http://www.w3.org/Graphics/SVG/1.1/DTD/svg11.dtd">
<!-- Generated by graphviz version 2.43.0 (0)
 -->
<!-- Title: ast Pages: 1 -->
<svg width="2909pt" height="1448pt"
 viewBox="0.00 0.00 2909.00 1448.00" xmlns="http://www.w3.org/2000/svg" xmlns:xlink="http://www.w3.org/1999/xlink">
<g id="graph0" class="graph" transform="scale(1 1) rotate(0) translate(4 1444)">
<title>ast</title>
<polygon fill="white" stroke="transparent" points="-4,4 -4,-1444 2905,-1444 2905,4 -4,4"/>
<!-- N0 -->
<g id="node1" class="node">
<title>N0</title>
<polygon fill="none" stroke="black" points="1264,-1440 1186,-1440 1186,-1404 1264,-1404 1264,-1440"/>
<text text-anchor="middle" x="1225" y="-1418.3" font-family="Times,serif" font-size="14.00">program</text>
</g>
<!-- N1 -->
<g id="node2" class="node">
<title>N1</title>
<polygon fill="none" stroke="black" points="1252,-1332 1198,-1332 1198,-1296 1252,-1296 1252,-1332"/>
<text text-anchor="middle" x="1225" y="-1310.3" font-family="Times,serif" font-size="14.00">let</text>
</g>
<!-- N0&#45;&gt;N1 -->
<g id="edge80" class="edge">
<title>N0&#45;&gt;N1</title>
<path fill="none" stroke="black" d="M1225,-1403.97C1225,-1387.38 1225,-1361.88 1225,-1342.43"/>
<polygon fill="black" stroke="black" points="1228.5,-1342.34 1225,-1332.34 1221.5,-1342.34 1228.5,-1342.34"/>
</g>
<!-- N2 -->
<g id="node3" class="node">
<title>N2</title>
<polygon fill="none" stroke="black" points="230.5,-1224 75.5,-1224 75.5,-1188 230.5,-1188 230.5,-1224"/>
<text text-anchor="middle" x="153" y="-1202.3" font-family="Times,serif" font-size="14.00">Variabledeclaration</text>
</g>
<!-- N1&#45;&gt;N2 -->
<g id="edge3" class="edge">
<title>N1&#45;&gt;N2</title>
<path fill="none" stroke="black" d="M1197.96,-1310.33C1063.9,-1297.07 467.82,-1238.13 241.01,-1215.7"/>
<polygon fill="black" stroke="black" points="241.11,-1212.2 230.82,-1214.69 240.42,-1219.16 241.11,-1212.2"/>
</g>
<!-- N4 -->
<g id="node5" class="node">
<title>N4</title>
<polygon fill="none" stroke="black" points="443,-1224 389,-1224 389,-1188 443,-1188 443,-1224"/>
<text text-anchor="middle" x="416" y="-1202.3" font-family="Times,serif" font-size="14.00">=</text>
</g>
<!-- N1&#45;&gt;N4 -->
<g id="edge6" class="edge">
<title>N1&#45;&gt;N4</title>
<path fill="none" stroke="black" d="M1197.62,-1309.41C1076.97,-1293.6 592.63,-1230.14 453.53,-1211.92"/>
<polygon fill="black" stroke="black" points="453.74,-1208.42 443.37,-1210.59 452.83,-1215.36 453.74,-1208.42"/>
</g>
<!-- N7 -->
<g id="node8" class="node">
<title>N7</title>
<polygon fill="none" stroke="black" points="761.5,-1224 606.5,-1224 606.5,-1188 761.5,-1188 761.5,-1224"/>
<text text-anchor="middle" x="684" y="-1202.3" font-family="Times,serif" font-size="14.00">Variabledeclaration</text>
</g>
<!-- N1&#45;&gt;N7 -->
<g id="edge13" class="edge">
<title>N1&#45;&gt;N7</title>
<path fill="none" stroke="black" d="M1197.8,-1307.67C1120.51,-1292.53 897.08,-1248.75 771.81,-1224.2"/>
<polygon fill="black" stroke="black" points="772.34,-1220.74 761.85,-1222.25 770.99,-1227.61 772.34,-1220.74"/>
</g>
<!-- N12 -->
<g id="node13" class="node">
<title>N12</title>
<polygon fill="none" stroke="black" points="1176.5,-1224 1021.5,-1224 1021.5,-1188 1176.5,-1188 1176.5,-1224"/>
<text text-anchor="middle" x="1099" y="-1202.3" font-family="Times,serif" font-size="14.00">Variabledeclaration</text>
</g>
<!-- N1&#45;&gt;N12 -->
<g id="edge20" class="edge">
<title>N1&#45;&gt;N12</title>
<path fill="none" stroke="black" d="M1204.76,-1295.97C1183.85,-1278.38 1151.04,-1250.78 1127.51,-1230.99"/>
<polygon fill="black" stroke="black" points="1129.52,-1228.1 1119.61,-1224.34 1125.01,-1233.46 1129.52,-1228.1"/>
</g>
<!-- N17 -->
<g id="node18" class="node">
<title>N17</title>
<polygon fill="none" stroke="black" points="1410.5,-1224 1255.5,-1224 1255.5,-1188 1410.5,-1188 1410.5,-1224"/>
<text text-anchor="middle" x="1333" y="-1202.3" font-family="Times,serif" font-size="14.00">Variabledeclaration</text>
</g>
<!-- N1&#45;&gt;N17 -->
<g id="edge31" class="edge">
<title>N1&#45;&gt;N17</title>
<path fill="none" stroke="black" d="M1242.35,-1295.97C1260.12,-1278.53 1287.9,-1251.26 1308.03,-1231.51"/>
<polygon fill="black" stroke="black" points="1310.65,-1233.84 1315.33,-1224.34 1305.74,-1228.85 1310.65,-1233.84"/>
</g>
<!-- N26 -->
<g id="node27" class="node">
<title>N26</title>
<polygon fill="none" stroke="black" points="1927.5,-1224 1772.5,-1224 1772.5,-1188 1927.5,-1188 1927.5,-1224"/>
<text text-anchor="middle" x="1850" y="-1202.3" font-family="Times,serif" font-size="14.00">Variabledeclaration</text>
</g>
<!-- N1&#45;&gt;N26 -->
<g id="edge42" class="edge">
<title>N1&#45;&gt;N26</title>
<path fill="none" stroke="black" d="M1252.26,-1308.38C1340.13,-1293.47 1618.61,-1246.24 1762.31,-1221.87"/>
<polygon fill="black" stroke="black" points="1763.15,-1225.28 1772.42,-1220.16 1761.98,-1218.38 1763.15,-1225.28"/>
</g>
<!-- N35 -->
<g id="node36" class="node">
<title>N35</title>
<polygon fill="none" stroke="black" points="2192.5,-1224 2117.5,-1224 2117.5,-1188 2192.5,-1188 2192.5,-1224"/>
<text text-anchor="middle" x="2155" y="-1202.3" font-family="Times,serif" font-size="14.00">function</text>
</g>
<!-- N1&#45;&gt;N35 -->
<g id="edge76" class="edge">
<title>N1&#45;&gt;N35</title>
<path fill="none" stroke="black" d="M1252.08,-1309.91C1381.79,-1295.13 1940.16,-1231.49 2107.45,-1212.42"/>
<polygon fill="black" stroke="black" points="2107.9,-1215.89 2117.44,-1211.28 2107.11,-1208.94 2107.9,-1215.89"/>
</g>
<!-- N64 -->
<g id="node65" class="node">
<title>N64</title>
<polygon fill="none" stroke="black" points="2410,-1224 2334,-1224 2334,-1188 2410,-1188 2410,-1224"/>
<text text-anchor="middle" x="2372" y="-1202.3" font-family="Times,serif" font-size="14.00">Exprseq</text>
</g>
<!-- N1&#45;&gt;N64 -->
<g id="edge79" class="edge">
<title>N1&#45;&gt;N64</title>
<path fill="none" stroke="black" d="M1252.18,-1310.89C1369.22,-1301.75 1841.73,-1264.18 2229,-1224 2260.53,-1220.73 2295.91,-1216.53 2323.59,-1213.12"/>
<polygon fill="black" stroke="black" points="2324.3,-1216.56 2333.8,-1211.86 2323.44,-1209.61 2324.3,-1216.56"/>
</g>
<!-- N3 -->
<g id="node4" class="node">
<title>N3</title>
<polygon fill="none" stroke="black" points="180,-1116 126,-1116 126,-1080 180,-1080 180,-1116"/>
<text text-anchor="middle" x="153" y="-1094.3" font-family="Times,serif" font-size="14.00">8</text>
</g>
<!-- N2&#45;&gt;N3 -->
<g id="edge2" class="edge">
<title>N2&#45;&gt;N3</title>
<path fill="none" stroke="black" d="M153,-1187.97C153,-1171.38 153,-1145.88 153,-1126.43"/>
<polygon fill="black" stroke="black" points="156.5,-1126.34 153,-1116.34 149.5,-1126.34 156.5,-1126.34"/>
</g>
<!-- N -->
<g id="node67" class="node">
<title>N</title>
<ellipse fill="none" stroke="black" cx="27" cy="-1098" rx="27" ry="18"/>
<text text-anchor="middle" x="27" y="-1094.3" font-family="Times,serif" font-size="14.00">N</text>
</g>
<!-- N2&#45;&gt;N -->
<g id="edge1" class="edge">
<title>N2&#45;&gt;N</title>
<path fill="none" stroke="black" d="M132.76,-1187.97C110.48,-1169.23 74.7,-1139.12 51.02,-1119.2"/>
<polygon fill="black" stroke="black" points="53.09,-1116.38 43.19,-1112.62 48.59,-1121.73 53.09,-1116.38"/>
</g>
<!-- N5 -->
<g id="node6" class="node">
<title>N5</title>
<polygon fill="none" stroke="black" points="454,-1116 378,-1116 378,-1080 454,-1080 454,-1116"/>
<text text-anchor="middle" x="416" y="-1094.3" font-family="Times,serif" font-size="14.00">intArray</text>
</g>
<!-- N4&#45;&gt;N5 -->
<g id="edge4" class="edge">
<title>N4&#45;&gt;N5</title>
<path fill="none" stroke="black" d="M416,-1187.97C416,-1171.38 416,-1145.88 416,-1126.43"/>
<polygon fill="black" stroke="black" points="419.5,-1126.34 416,-1116.34 412.5,-1126.34 419.5,-1126.34"/>
</g>
<!-- N6 -->
<g id="node7" class="node">
<title>N6</title>
<polygon fill="none" stroke="black" points="306,-1116 252,-1116 252,-1080 306,-1080 306,-1116"/>
<text text-anchor="middle" x="279" y="-1094.3" font-family="Times,serif" font-size="14.00">int</text>
</g>
<!-- N4&#45;&gt;N6 -->
<g id="edge5" class="edge">
<title>N4&#45;&gt;N6</title>
<path fill="none" stroke="black" d="M393.99,-1187.97C371.06,-1170.23 334.96,-1142.3 309.33,-1122.47"/>
<polygon fill="black" stroke="black" points="311.46,-1119.69 301.41,-1116.34 307.18,-1125.23 311.46,-1119.69"/>
</g>
<!-- N8 -->
<g id="node9" class="node">
<title>N8</title>
<polygon fill="none" stroke="black" points="712,-1116 656,-1116 656,-1080 712,-1080 712,-1116"/>
<text text-anchor="middle" x="684" y="-1094.3" font-family="Times,serif" font-size="14.00">types</text>
</g>
<!-- N7&#45;&gt;N8 -->
<g id="edge12" class="edge">
<title>N7&#45;&gt;N8</title>
<path fill="none" stroke="black" d="M684,-1187.97C684,-1171.38 684,-1145.88 684,-1126.43"/>
<polygon fill="black" stroke="black" points="687.5,-1126.34 684,-1116.34 680.5,-1126.34 687.5,-1126.34"/>
</g>
<!-- row -->
<g id="node68" class="node">
<title>row</title>
<ellipse fill="none" stroke="black" cx="555" cy="-1098" rx="28.7" ry="18"/>
<text text-anchor="middle" x="555" y="-1094.3" font-family="Times,serif" font-size="14.00">row</text>
</g>
<!-- N7&#45;&gt;row -->
<g id="edge7" class="edge">
<title>N7&#45;&gt;row</title>
<path fill="none" stroke="black" d="M663.27,-1187.97C640.59,-1169.33 604.24,-1139.46 580,-1119.54"/>
<polygon fill="black" stroke="black" points="581.92,-1116.59 571.97,-1112.94 577.47,-1122 581.92,-1116.59"/>
</g>
<!-- N9 -->
<g id="node10" class="node">
<title>N9</title>
<polygon fill="none" stroke="black" points="459,-1008 383,-1008 383,-972 459,-972 459,-1008"/>
<text text-anchor="middle" x="421" y="-986.3" font-family="Times,serif" font-size="14.00">intArray</text>
</g>
<!-- N8&#45;&gt;N9 -->
<g id="edge8" class="edge">
<title>N8&#45;&gt;N9</title>
<path fill="none" stroke="black" d="M655.85,-1085.66C611.1,-1067.62 523.2,-1032.19 468.55,-1010.17"/>
<polygon fill="black" stroke="black" points="469.67,-1006.84 459.08,-1006.35 467.05,-1013.33 469.67,-1006.84"/>
</g>
<!-- N10 -->
<g id="node11" class="node">
<title>N10</title>
<polygon fill="none" stroke="black" points="585,-1008 531,-1008 531,-972 585,-972 585,-1008"/>
<text text-anchor="middle" x="558" y="-986.3" font-family="Times,serif" font-size="14.00">N</text>
</g>
<!-- N8&#45;&gt;N10 -->
<g id="edge9" class="edge">
<title>N8&#45;&gt;N10</title>
<path fill="none" stroke="black" d="M663.76,-1079.97C642.85,-1062.38 610.04,-1034.78 586.51,-1014.99"/>
<polygon fill="black" stroke="black" points="588.52,-1012.1 578.61,-1008.34 584.01,-1017.46 588.52,-1012.1"/>
</g>
<!-- N11 -->
<g id="node12" class="node">
<title>N11</title>
<polygon fill="none" stroke="black" points="711,-1008 657,-1008 657,-972 711,-972 711,-1008"/>
<text text-anchor="middle" x="684" y="-986.3" font-family="Times,serif" font-size="14.00">0</text>
</g>
<!-- N8&#45;&gt;N11 -->
<g id="edge11" class="edge">
<title>N8&#45;&gt;N11</title>
<path fill="none" stroke="black" d="M684,-1079.97C684,-1063.38 684,-1037.88 684,-1018.43"/>
<polygon fill="black" stroke="black" points="687.5,-1018.34 684,-1008.34 680.5,-1018.34 687.5,-1018.34"/>
</g>
<!-- of -->
<g id="node69" class="node">
<title>of</title>
<ellipse fill="none" stroke="black" cx="1356" cy="-990" rx="27" ry="18"/>
<text text-anchor="middle" x="1356" y="-986.3" font-family="Times,serif" font-size="14.00">of</text>
</g>
<!-- N8&#45;&gt;of -->
<g id="edge10" class="edge">
<title>N8&#45;&gt;of</title>
<path fill="none" stroke="black" d="M712.13,-1094.09C799.1,-1084.84 1071.19,-1053.97 1293,-1008 1302.53,-1006.02 1312.76,-1003.46 1322.15,-1000.92"/>
<polygon fill="black" stroke="black" points="1323.23,-1004.26 1331.93,-998.21 1321.36,-997.51 1323.23,-1004.26"/>
</g>
<!-- N13 -->
<g id="node14" class="node">
<title>N13</title>
<polygon fill="none" stroke="black" points="1127,-1116 1071,-1116 1071,-1080 1127,-1080 1127,-1116"/>
<text text-anchor="middle" x="1099" y="-1094.3" font-family="Times,serif" font-size="14.00">types</text>
</g>
<!-- N12&#45;&gt;N13 -->
<g id="edge19" class="edge">
<title>N12&#45;&gt;N13</title>
<path fill="none" stroke="black" d="M1099,-1187.97C1099,-1171.38 1099,-1145.88 1099,-1126.43"/>
<polygon fill="black" stroke="black" points="1102.5,-1126.34 1099,-1116.34 1095.5,-1126.34 1102.5,-1126.34"/>
</g>
<!-- col -->
<g id="node70" class="node">
<title>col</title>
<ellipse fill="none" stroke="black" cx="883" cy="-126" rx="27" ry="18"/>
<text text-anchor="middle" x="883" y="-122.3" font-family="Times,serif" font-size="14.00">col</text>
</g>
<!-- N12&#45;&gt;col -->
<g id="edge14" class="edge">
<title>N12&#45;&gt;col</title>
<path fill="none" stroke="black" d="M1066.72,-1187.85C993.28,-1146.24 820,-1032.23 820,-883 820,-883 820,-883 820,-341 820,-270.31 852.03,-191.63 870.41,-152.29"/>
<polygon fill="black" stroke="black" points="873.62,-153.7 874.76,-143.17 867.3,-150.69 873.62,-153.7"/>
</g>
<!-- N14 -->
<g id="node15" class="node">
<title>N14</title>
<polygon fill="none" stroke="black" points="1131,-1008 1055,-1008 1055,-972 1131,-972 1131,-1008"/>
<text text-anchor="middle" x="1093" y="-986.3" font-family="Times,serif" font-size="14.00">intArray</text>
</g>
<!-- N13&#45;&gt;N14 -->
<g id="edge15" class="edge">
<title>N13&#45;&gt;N14</title>
<path fill="none" stroke="black" d="M1098.04,-1079.97C1097.1,-1063.38 1095.65,-1037.88 1094.55,-1018.43"/>
<polygon fill="black" stroke="black" points="1098.04,-1018.13 1093.98,-1008.34 1091.05,-1018.52 1098.04,-1018.13"/>
</g>
<!-- N15 -->
<g id="node16" class="node">
<title>N15</title>
<polygon fill="none" stroke="black" points="1257,-1008 1203,-1008 1203,-972 1257,-972 1257,-1008"/>
<text text-anchor="middle" x="1230" y="-986.3" font-family="Times,serif" font-size="14.00">N</text>
</g>
<!-- N13&#45;&gt;N15 -->
<g id="edge16" class="edge">
<title>N13&#45;&gt;N15</title>
<path fill="none" stroke="black" d="M1120.05,-1079.97C1141.88,-1062.3 1176.19,-1034.54 1200.68,-1014.73"/>
<polygon fill="black" stroke="black" points="1203,-1017.35 1208.57,-1008.34 1198.59,-1011.91 1203,-1017.35"/>
</g>
<!-- N16 -->
<g id="node17" class="node">
<title>N16</title>
<polygon fill="none" stroke="black" points="983,-1008 929,-1008 929,-972 983,-972 983,-1008"/>
<text text-anchor="middle" x="956" y="-986.3" font-family="Times,serif" font-size="14.00">0</text>
</g>
<!-- N13&#45;&gt;N16 -->
<g id="edge18" class="edge">
<title>N13&#45;&gt;N16</title>
<path fill="none" stroke="black" d="M1076.02,-1079.97C1052.09,-1062.23 1014.41,-1034.3 987.66,-1014.47"/>
<polygon fill="black" stroke="black" points="989.51,-1011.48 979.39,-1008.34 985.34,-1017.11 989.51,-1011.48"/>
</g>
<!-- N13&#45;&gt;of -->
<g id="edge17" class="edge">
<title>N13&#45;&gt;of</title>
<path fill="none" stroke="black" d="M1127.49,-1085.25C1175.76,-1065.34 1273.31,-1025.1 1323.92,-1004.23"/>
<polygon fill="black" stroke="black" points="1325.48,-1007.38 1333.39,-1000.33 1322.81,-1000.9 1325.48,-1007.38"/>
</g>
<!-- N18 -->
<g id="node19" class="node">
<title>N18</title>
<polygon fill="none" stroke="black" points="1510,-1116 1454,-1116 1454,-1080 1510,-1080 1510,-1116"/>
<text text-anchor="middle" x="1482" y="-1094.3" font-family="Times,serif" font-size="14.00">types</text>
</g>
<!-- N17&#45;&gt;N18 -->
<g id="edge30" class="edge">
<title>N17&#45;&gt;N18</title>
<path fill="none" stroke="black" d="M1356.94,-1187.97C1381.99,-1170.15 1421.48,-1142.06 1449.37,-1122.21"/>
<polygon fill="black" stroke="black" points="1451.51,-1124.99 1457.62,-1116.34 1447.45,-1119.29 1451.51,-1124.99"/>
</g>
<!-- diag1 -->
<g id="node71" class="node">
<title>diag1</title>
<ellipse fill="none" stroke="black" cx="1333" cy="-1098" rx="36.29" ry="18"/>
<text text-anchor="middle" x="1333" y="-1094.3" font-family="Times,serif" font-size="14.00">diag1</text>
</g>
<!-- N17&#45;&gt;diag1 -->
<g id="edge21" class="edge">
<title>N17&#45;&gt;diag1</title>
<path fill="none" stroke="black" d="M1333,-1187.97C1333,-1171.38 1333,-1145.88 1333,-1126.43"/>
<polygon fill="black" stroke="black" points="1336.5,-1126.34 1333,-1116.34 1329.5,-1126.34 1336.5,-1126.34"/>
</g>
<!-- N19 -->
<g id="node20" class="node">
<title>N19</title>
<polygon fill="none" stroke="black" points="1657,-1008 1581,-1008 1581,-972 1657,-972 1657,-1008"/>
<text text-anchor="middle" x="1619" y="-986.3" font-family="Times,serif" font-size="14.00">intArray</text>
</g>
<!-- N18&#45;&gt;N19 -->
<g id="edge22" class="edge">
<title>N18&#45;&gt;N19</title>
<path fill="none" stroke="black" d="M1504.01,-1079.97C1526.94,-1062.23 1563.04,-1034.3 1588.67,-1014.47"/>
<polygon fill="black" stroke="black" points="1590.82,-1017.23 1596.59,-1008.34 1586.54,-1011.69 1590.82,-1017.23"/>
</g>
<!-- N20 -->
<g id="node25" class="node">
<title>N20</title>
<polygon fill="none" stroke="black" points="1783,-1008 1729,-1008 1729,-972 1783,-972 1783,-1008"/>
<text text-anchor="middle" x="1756" y="-986.3" font-family="Times,serif" font-size="14.00">&#45;</text>
</g>
<!-- N18&#45;&gt;N20 -->
<g id="edge27" class="edge">
<title>N18&#45;&gt;N20</title>
<path fill="none" stroke="black" d="M1510.04,-1086.15C1559.83,-1066.89 1663.67,-1026.72 1719.16,-1005.25"/>
<polygon fill="black" stroke="black" points="1720.55,-1008.47 1728.62,-1001.59 1718.03,-1001.94 1720.55,-1008.47"/>
</g>
<!-- N25 -->
<g id="node26" class="node">
<title>N25</title>
<polygon fill="none" stroke="black" points="1509,-1008 1455,-1008 1455,-972 1509,-972 1509,-1008"/>
<text text-anchor="middle" x="1482" y="-986.3" font-family="Times,serif" font-size="14.00">0</text>
</g>
<!-- N18&#45;&gt;N25 -->
<g id="edge29" class="edge">
<title>N18&#45;&gt;N25</title>
<path fill="none" stroke="black" d="M1482,-1079.97C1482,-1063.38 1482,-1037.88 1482,-1018.43"/>
<polygon fill="black" stroke="black" points="1485.5,-1018.34 1482,-1008.34 1478.5,-1018.34 1485.5,-1018.34"/>
</g>
<!-- N18&#45;&gt;of -->
<g id="edge28" class="edge">
<title>N18&#45;&gt;of</title>
<path fill="none" stroke="black" d="M1461.76,-1079.97C1439.48,-1061.23 1403.7,-1031.12 1380.02,-1011.2"/>
<polygon fill="black" stroke="black" points="1382.09,-1008.38 1372.19,-1004.62 1377.59,-1013.73 1382.09,-1008.38"/>
</g>
<!-- N22 -->
<g id="node21" class="node">
<title>N22</title>
<polygon fill="none" stroke="black" points="1787,-792 1733,-792 1733,-756 1787,-756 1787,-792"/>
<text text-anchor="middle" x="1760" y="-770.3" font-family="Times,serif" font-size="14.00">N</text>
</g>
<!-- N23 -->
<g id="node22" class="node">
<title>N23</title>
<polygon fill="none" stroke="black" points="1661,-792 1607,-792 1607,-756 1661,-756 1661,-792"/>
<text text-anchor="middle" x="1634" y="-770.3" font-family="Times,serif" font-size="14.00">N</text>
</g>
<!-- N21 -->
<g id="node23" class="node">
<title>N21</title>
<polygon fill="none" stroke="black" points="1783,-900 1729,-900 1729,-864 1783,-864 1783,-900"/>
<text text-anchor="middle" x="1756" y="-878.3" font-family="Times,serif" font-size="14.00">+</text>
</g>
<!-- N21&#45;&gt;N22 -->
<g id="edge23" class="edge">
<title>N21&#45;&gt;N22</title>
<path fill="none" stroke="black" d="M1756.64,-863.97C1757.27,-847.38 1758.23,-821.88 1758.96,-802.43"/>
<polygon fill="black" stroke="black" points="1762.47,-802.47 1759.35,-792.34 1755.47,-802.2 1762.47,-802.47"/>
</g>
<!-- N21&#45;&gt;N23 -->
<g id="edge24" class="edge">
<title>N21&#45;&gt;N23</title>
<path fill="none" stroke="black" d="M1736.4,-863.97C1716.15,-846.38 1684.39,-818.78 1661.61,-798.99"/>
<polygon fill="black" stroke="black" points="1663.8,-796.26 1653.96,-792.34 1659.21,-801.54 1663.8,-796.26"/>
</g>
<!-- N24 -->
<g id="node24" class="node">
<title>N24</title>
<polygon fill="none" stroke="black" points="1657,-900 1603,-900 1603,-864 1657,-864 1657,-900"/>
<text text-anchor="middle" x="1630" y="-878.3" font-family="Times,serif" font-size="14.00">1</text>
</g>
<!-- N20&#45;&gt;N21 -->
<g id="edge25" class="edge">
<title>N20&#45;&gt;N21</title>
<path fill="none" stroke="black" d="M1756,-971.97C1756,-955.38 1756,-929.88 1756,-910.43"/>
<polygon fill="black" stroke="black" points="1759.5,-910.34 1756,-900.34 1752.5,-910.34 1759.5,-910.34"/>
</g>
<!-- N20&#45;&gt;N24 -->
<g id="edge26" class="edge">
<title>N20&#45;&gt;N24</title>
<path fill="none" stroke="black" d="M1735.76,-971.97C1714.85,-954.38 1682.04,-926.78 1658.51,-906.99"/>
<polygon fill="black" stroke="black" points="1660.52,-904.1 1650.61,-900.34 1656.01,-909.46 1660.52,-904.1"/>
</g>
<!-- N27 -->
<g id="node28" class="node">
<title>N27</title>
<polygon fill="none" stroke="black" points="1878,-1116 1822,-1116 1822,-1080 1878,-1080 1878,-1116"/>
<text text-anchor="middle" x="1850" y="-1094.3" font-family="Times,serif" font-size="14.00">types</text>
</g>
<!-- N26&#45;&gt;N27 -->
<g id="edge41" class="edge">
<title>N26&#45;&gt;N27</title>
<path fill="none" stroke="black" d="M1850,-1187.97C1850,-1171.38 1850,-1145.88 1850,-1126.43"/>
<polygon fill="black" stroke="black" points="1853.5,-1126.34 1850,-1116.34 1846.5,-1126.34 1853.5,-1126.34"/>
</g>
<!-- diag2 -->
<g id="node72" class="node">
<title>diag2</title>
<ellipse fill="none" stroke="black" cx="1986" cy="-1098" rx="36.29" ry="18"/>
<text text-anchor="middle" x="1986" y="-1094.3" font-family="Times,serif" font-size="14.00">diag2</text>
</g>
<!-- N26&#45;&gt;diag2 -->
<g id="edge32" class="edge">
<title>N26&#45;&gt;diag2</title>
<path fill="none" stroke="black" d="M1871.85,-1187.97C1895.6,-1169.46 1933.56,-1139.87 1959.12,-1119.95"/>
<polygon fill="black" stroke="black" points="1961.53,-1122.51 1967.27,-1113.6 1957.23,-1116.99 1961.53,-1122.51"/>
</g>
<!-- N28 -->
<g id="node29" class="node">
<title>N28</title>
<polygon fill="none" stroke="black" points="2183,-1008 2107,-1008 2107,-972 2183,-972 2183,-1008"/>
<text text-anchor="middle" x="2145" y="-986.3" font-family="Times,serif" font-size="14.00">intArray</text>
</g>
<!-- N27&#45;&gt;N28 -->
<g id="edge33" class="edge">
<title>N27&#45;&gt;N28</title>
<path fill="none" stroke="black" d="M1878.02,-1086.93C1928.39,-1068.83 2034.79,-1030.6 2096.99,-1008.25"/>
<polygon fill="black" stroke="black" points="2098.35,-1011.48 2106.57,-1004.81 2095.98,-1004.9 2098.35,-1011.48"/>
</g>
<!-- N29 -->
<g id="node34" class="node">
<title>N29</title>
<polygon fill="none" stroke="black" points="1909,-1008 1855,-1008 1855,-972 1909,-972 1909,-1008"/>
<text text-anchor="middle" x="1882" y="-986.3" font-family="Times,serif" font-size="14.00">&#45;</text>
</g>
<!-- N27&#45;&gt;N29 -->
<g id="edge38" class="edge">
<title>N27&#45;&gt;N29</title>
<path fill="none" stroke="black" d="M1855.14,-1079.97C1860.17,-1063.3 1867.92,-1037.65 1873.8,-1018.16"/>
<polygon fill="black" stroke="black" points="1877.23,-1018.93 1876.77,-1008.34 1870.52,-1016.9 1877.23,-1018.93"/>
</g>
<!-- N34 -->
<g id="node35" class="node">
<title>N34</title>
<polygon fill="none" stroke="black" points="2035,-1008 1981,-1008 1981,-972 2035,-972 2035,-1008"/>
<text text-anchor="middle" x="2008" y="-986.3" font-family="Times,serif" font-size="14.00">0</text>
</g>
<!-- N27&#45;&gt;N34 -->
<g id="edge40" class="edge">
<title>N27&#45;&gt;N34</title>
<path fill="none" stroke="black" d="M1875.39,-1079.97C1902.14,-1062.02 1944.43,-1033.65 1974.04,-1013.78"/>
<polygon fill="black" stroke="black" points="1976.06,-1016.64 1982.42,-1008.16 1972.16,-1010.83 1976.06,-1016.64"/>
</g>
<!-- N27&#45;&gt;of -->
<g id="edge39" class="edge">
<title>N27&#45;&gt;of</title>
<path fill="none" stroke="black" d="M1821.89,-1091.8C1752.94,-1078.92 1570.08,-1043.95 1419,-1008 1409.61,-1005.77 1399.5,-1003.14 1390.18,-1000.62"/>
<polygon fill="black" stroke="black" points="1391.02,-997.22 1380.45,-997.96 1389.17,-1003.98 1391.02,-997.22"/>
</g>
<!-- N31 -->
<g id="node30" class="node">
<title>N31</title>
<polygon fill="none" stroke="black" points="2044,-792 1990,-792 1990,-756 2044,-756 2044,-792"/>
<text text-anchor="middle" x="2017" y="-770.3" font-family="Times,serif" font-size="14.00">N</text>
</g>
<!-- N32 -->
<g id="node31" class="node">
<title>N32</title>
<polygon fill="none" stroke="black" points="1918,-792 1864,-792 1864,-756 1918,-756 1918,-792"/>
<text text-anchor="middle" x="1891" y="-770.3" font-family="Times,serif" font-size="14.00">N</text>
</g>
<!-- N30 -->
<g id="node32" class="node">
<title>N30</title>
<polygon fill="none" stroke="black" points="2035,-900 1981,-900 1981,-864 2035,-864 2035,-900"/>
<text text-anchor="middle" x="2008" y="-878.3" font-family="Times,serif" font-size="14.00">+</text>
</g>
<!-- N30&#45;&gt;N31 -->
<g id="edge34" class="edge">
<title>N30&#45;&gt;N31</title>
<path fill="none" stroke="black" d="M2009.45,-863.97C2010.85,-847.38 2013.02,-821.88 2014.67,-802.43"/>
<polygon fill="black" stroke="black" points="2018.17,-802.6 2015.53,-792.34 2011.19,-802.01 2018.17,-802.6"/>
</g>
<!-- N30&#45;&gt;N32 -->
<g id="edge35" class="edge">
<title>N30&#45;&gt;N32</title>
<path fill="none" stroke="black" d="M1989.2,-863.97C1969.87,-846.46 1939.59,-819.02 1917.76,-799.25"/>
<polygon fill="black" stroke="black" points="1919.9,-796.46 1910.14,-792.34 1915.2,-801.65 1919.9,-796.46"/>
</g>
<!-- N33 -->
<g id="node33" class="node">
<title>N33</title>
<polygon fill="none" stroke="black" points="1909,-900 1855,-900 1855,-864 1909,-864 1909,-900"/>
<text text-anchor="middle" x="1882" y="-878.3" font-family="Times,serif" font-size="14.00">1</text>
</g>
<!-- N29&#45;&gt;N30 -->
<g id="edge36" class="edge">
<title>N29&#45;&gt;N30</title>
<path fill="none" stroke="black" d="M1902.24,-971.97C1923.15,-954.38 1955.96,-926.78 1979.49,-906.99"/>
<polygon fill="black" stroke="black" points="1981.99,-909.46 1987.39,-900.34 1977.48,-904.1 1981.99,-909.46"/>
</g>
<!-- N29&#45;&gt;N33 -->
<g id="edge37" class="edge">
<title>N29&#45;&gt;N33</title>
<path fill="none" stroke="black" d="M1882,-971.97C1882,-955.38 1882,-929.88 1882,-910.43"/>
<polygon fill="black" stroke="black" points="1885.5,-910.34 1882,-900.34 1878.5,-910.34 1885.5,-910.34"/>
</g>
<!-- N36 -->
<g id="node37" class="node">
<title>N36</title>
<polygon fill="none" stroke="black" points="2341,-1116 2287,-1116 2287,-1080 2341,-1080 2341,-1116"/>
<text text-anchor="middle" x="2314" y="-1094.3" font-family="Times,serif" font-size="14.00">=</text>
</g>
<!-- N35&#45;&gt;N36 -->
<g id="edge75" class="edge">
<title>N35&#45;&gt;N36</title>
<path fill="none" stroke="black" d="M2180.55,-1187.97C2207.47,-1170.02 2250.03,-1141.65 2279.83,-1121.78"/>
<polygon fill="black" stroke="black" points="2281.87,-1124.62 2288.25,-1116.16 2277.99,-1118.8 2281.87,-1124.62"/>
</g>
<!-- printboard -->
<g id="node76" class="node">
<title>printboard</title>
<ellipse fill="none" stroke="black" cx="2155" cy="-1098" rx="60.39" ry="18"/>
<text text-anchor="middle" x="2155" y="-1094.3" font-family="Times,serif" font-size="14.00">printboard</text>
</g>
<!-- N35&#45;&gt;printboard -->
<g id="edge74" class="edge">
<title>N35&#45;&gt;printboard</title>
<path fill="none" stroke="black" d="M2155,-1187.97C2155,-1171.38 2155,-1145.88 2155,-1126.43"/>
<polygon fill="black" stroke="black" points="2158.5,-1126.34 2155,-1116.34 2151.5,-1126.34 2158.5,-1126.34"/>
</g>
<!-- N37 -->
<g id="node38" class="node">
<title>N37</title>
<polygon fill="none" stroke="black" points="2457,-1008 2381,-1008 2381,-972 2457,-972 2457,-1008"/>
<text text-anchor="middle" x="2419" y="-986.3" font-family="Times,serif" font-size="14.00">Exprseq</text>
</g>
<!-- N36&#45;&gt;N37 -->
<g id="edge73" class="edge">
<title>N36&#45;&gt;N37</title>
<path fill="none" stroke="black" d="M2330.87,-1079.97C2348.14,-1062.53 2375.15,-1035.26 2394.72,-1015.51"/>
<polygon fill="black" stroke="black" points="2397.27,-1017.91 2401.82,-1008.34 2392.3,-1012.98 2397.27,-1017.91"/>
</g>
<!-- = -->
<g id="node75" class="node">
<title>=</title>
<ellipse fill="none" stroke="black" cx="2282" cy="-990" rx="27" ry="18"/>
<text text-anchor="middle" x="2282" y="-986.3" font-family="Times,serif" font-size="14.00">=</text>
</g>
<!-- N36&#45;&gt;= -->
<g id="edge72" class="edge">
<title>N36&#45;&gt;=</title>
<path fill="none" stroke="black" d="M2308.86,-1079.97C2303.8,-1063.2 2295.99,-1037.34 2290.09,-1017.81"/>
<polygon fill="black" stroke="black" points="2293.37,-1016.55 2287.13,-1007.99 2286.67,-1018.57 2293.37,-1016.55"/>
</g>
<!-- N38 -->
<g id="node61" class="node">
<title>N38</title>
<polygon fill="none" stroke="black" points="2446,-900 2392,-900 2392,-864 2446,-864 2446,-900"/>
<text text-anchor="middle" x="2419" y="-878.3" font-family="Times,serif" font-size="14.00">for</text>
</g>
<!-- N37&#45;&gt;N38 -->
<g id="edge68" class="edge">
<title>N37&#45;&gt;N38</title>
<path fill="none" stroke="black" d="M2419,-971.97C2419,-955.38 2419,-929.88 2419,-910.43"/>
<polygon fill="black" stroke="black" points="2422.5,-910.34 2419,-900.34 2415.5,-910.34 2422.5,-910.34"/>
</g>
<!-- N61 -->
<g id="node62" class="node">
<title>N61</title>
<polygon fill="none" stroke="black" points="2254,-900 2178,-900 2178,-864 2254,-864 2254,-900"/>
<text text-anchor="middle" x="2216" y="-878.3" font-family="Times,serif" font-size="14.00">Exprseq</text>
</g>
<!-- N37&#45;&gt;N61 -->
<g id="edge71" class="edge">
<title>N37&#45;&gt;N61</title>
<path fill="none" stroke="black" d="M2386.38,-971.97C2351.57,-953.79 2296.27,-924.91 2258.17,-905.02"/>
<polygon fill="black" stroke="black" points="2259.36,-901.69 2248.87,-900.16 2256.12,-907.9 2259.36,-901.69"/>
</g>
<!-- N39 -->
<g id="node39" class="node">
<title>N39</title>
<polygon fill="none" stroke="black" points="2312,-792 2258,-792 2258,-756 2312,-756 2312,-792"/>
<text text-anchor="middle" x="2285" y="-770.3" font-family="Times,serif" font-size="14.00">0</text>
</g>
<!-- N41 -->
<g id="node40" class="node">
<title>N41</title>
<polygon fill="none" stroke="black" points="2438,-684 2384,-684 2384,-648 2438,-648 2438,-684"/>
<text text-anchor="middle" x="2411" y="-662.3" font-family="Times,serif" font-size="14.00">N</text>
</g>
<!-- N42 -->
<g id="node41" class="node">
<title>N42</title>
<polygon fill="none" stroke="black" points="2312,-684 2258,-684 2258,-648 2312,-648 2312,-684"/>
<text text-anchor="middle" x="2285" y="-662.3" font-family="Times,serif" font-size="14.00">1</text>
</g>
<!-- N40 -->
<g id="node42" class="node">
<title>N40</title>
<polygon fill="none" stroke="black" points="2438,-792 2384,-792 2384,-756 2438,-756 2438,-792"/>
<text text-anchor="middle" x="2411" y="-770.3" font-family="Times,serif" font-size="14.00">&#45;</text>
</g>
<!-- N40&#45;&gt;N41 -->
<g id="edge43" class="edge">
<title>N40&#45;&gt;N41</title>
<path fill="none" stroke="black" d="M2411,-755.97C2411,-739.38 2411,-713.88 2411,-694.43"/>
<polygon fill="black" stroke="black" points="2414.5,-694.34 2411,-684.34 2407.5,-694.34 2414.5,-694.34"/>
</g>
<!-- N40&#45;&gt;N42 -->
<g id="edge44" class="edge">
<title>N40&#45;&gt;N42</title>
<path fill="none" stroke="black" d="M2390.76,-755.97C2369.85,-738.38 2337.04,-710.78 2313.51,-690.99"/>
<polygon fill="black" stroke="black" points="2315.52,-688.1 2305.61,-684.34 2311.01,-693.46 2315.52,-688.1"/>
</g>
<!-- N43 -->
<g id="node43" class="node">
<title>N43</title>
<polygon fill="none" stroke="black" points="2712,-792 2636,-792 2636,-756 2712,-756 2712,-792"/>
<text text-anchor="middle" x="2674" y="-770.3" font-family="Times,serif" font-size="14.00">Exprseq</text>
</g>
<!-- N44 -->
<g id="node57" class="node">
<title>N44</title>
<polygon fill="none" stroke="black" points="2712,-684 2658,-684 2658,-648 2712,-648 2712,-684"/>
<text text-anchor="middle" x="2685" y="-662.3" font-family="Times,serif" font-size="14.00">for</text>
</g>
<!-- N43&#45;&gt;N44 -->
<g id="edge60" class="edge">
<title>N43&#45;&gt;N44</title>
<path fill="none" stroke="black" d="M2675.77,-755.97C2677.49,-739.38 2680.13,-713.88 2682.15,-694.43"/>
<polygon fill="black" stroke="black" points="2685.65,-694.65 2683.2,-684.34 2678.69,-693.93 2685.65,-694.65"/>
</g>
<!-- N58 -->
<g id="node58" class="node">
<title>N58</title>
<polygon fill="none" stroke="black" points="2586,-684 2510,-684 2510,-648 2586,-648 2586,-684"/>
<text text-anchor="middle" x="2548" y="-662.3" font-family="Times,serif" font-size="14.00">Exprseq</text>
</g>
<!-- N43&#45;&gt;N58 -->
<g id="edge63" class="edge">
<title>N43&#45;&gt;N58</title>
<path fill="none" stroke="black" d="M2653.76,-755.97C2632.85,-738.38 2600.04,-710.78 2576.51,-690.99"/>
<polygon fill="black" stroke="black" points="2578.52,-688.1 2568.61,-684.34 2574.01,-693.46 2578.52,-688.1"/>
</g>
<!-- N45 -->
<g id="node44" class="node">
<title>N45</title>
<polygon fill="none" stroke="black" points="2901,-576 2847,-576 2847,-540 2901,-540 2901,-576"/>
<text text-anchor="middle" x="2874" y="-554.3" font-family="Times,serif" font-size="14.00">0</text>
</g>
<!-- N47 -->
<g id="node45" class="node">
<title>N47</title>
<polygon fill="none" stroke="black" points="2645,-468 2591,-468 2591,-432 2645,-432 2645,-468"/>
<text text-anchor="middle" x="2618" y="-446.3" font-family="Times,serif" font-size="14.00">N</text>
</g>
<!-- N48 -->
<g id="node46" class="node">
<title>N48</title>
<polygon fill="none" stroke="black" points="2519,-468 2465,-468 2465,-432 2519,-432 2519,-468"/>
<text text-anchor="middle" x="2492" y="-446.3" font-family="Times,serif" font-size="14.00">1</text>
</g>
<!-- N46 -->
<g id="node47" class="node">
<title>N46</title>
<polygon fill="none" stroke="black" points="2523,-576 2469,-576 2469,-540 2523,-540 2523,-576"/>
<text text-anchor="middle" x="2496" y="-554.3" font-family="Times,serif" font-size="14.00">&#45;</text>
</g>
<!-- N46&#45;&gt;N47 -->
<g id="edge45" class="edge">
<title>N46&#45;&gt;N47</title>
<path fill="none" stroke="black" d="M2515.6,-539.97C2535.85,-522.38 2567.61,-494.78 2590.39,-474.99"/>
<polygon fill="black" stroke="black" points="2592.79,-477.54 2598.04,-468.34 2588.2,-472.26 2592.79,-477.54"/>
</g>
<!-- N46&#45;&gt;N48 -->
<g id="edge46" class="edge">
<title>N46&#45;&gt;N48</title>
<path fill="none" stroke="black" d="M2495.36,-539.97C2494.73,-523.38 2493.77,-497.88 2493.04,-478.43"/>
<polygon fill="black" stroke="black" points="2496.53,-478.2 2492.65,-468.34 2489.53,-478.47 2496.53,-478.2"/>
</g>
<!-- N50 -->
<g id="node48" class="node">
<title>N50</title>
<polygon fill="none" stroke="black" points="2779,-468 2717,-468 2717,-432 2779,-432 2779,-468"/>
<text text-anchor="middle" x="2748" y="-446.3" font-family="Times,serif" font-size="14.00">ifThen</text>
</g>
<!-- N51 -->
<g id="node53" class="node">
<title>N51</title>
<polygon fill="none" stroke="black" points="1789,-360 1735,-360 1735,-324 1789,-324 1789,-360"/>
<text text-anchor="middle" x="1762" y="-338.3" font-family="Times,serif" font-size="14.00">=</text>
</g>
<!-- N50&#45;&gt;N51 -->
<g id="edge52" class="edge">
<title>N50&#45;&gt;N51</title>
<path fill="none" stroke="black" d="M2716.85,-440.05C2705.63,-437.1 2692.82,-434.06 2681,-432 2341.89,-372.91 1925.05,-350.33 1799.49,-344.59"/>
<polygon fill="black" stroke="black" points="1799.41,-341.08 1789.27,-344.13 1799.1,-348.07 1799.41,-341.08"/>
</g>
<!-- N56 -->
<g id="node54" class="node">
<title>N56</title>
<polygon fill="none" stroke="black" points="2712,-360 2658,-360 2658,-324 2712,-324 2712,-360"/>
<text text-anchor="middle" x="2685" y="-338.3" font-family="Times,serif" font-size="14.00">&quot; O&quot;</text>
</g>
<!-- N50&#45;&gt;N56 -->
<g id="edge53" class="edge">
<title>N50&#45;&gt;N56</title>
<path fill="none" stroke="black" d="M2737.88,-431.97C2727.79,-414.99 2712.16,-388.7 2700.51,-369.09"/>
<polygon fill="black" stroke="black" points="2703.42,-367.15 2695.31,-360.34 2697.41,-370.73 2703.42,-367.15"/>
</g>
<!-- N57 -->
<g id="node55" class="node">
<title>N57</title>
<polygon fill="none" stroke="black" points="2838,-360 2784,-360 2784,-324 2838,-324 2838,-360"/>
<text text-anchor="middle" x="2811" y="-338.3" font-family="Times,serif" font-size="14.00">&quot; .&quot;</text>
</g>
<!-- N50&#45;&gt;N57 -->
<g id="edge54" class="edge">
<title>N50&#45;&gt;N57</title>
<path fill="none" stroke="black" d="M2758.12,-431.97C2768.21,-414.99 2783.84,-388.7 2795.49,-369.09"/>
<polygon fill="black" stroke="black" points="2798.59,-370.73 2800.69,-360.34 2792.58,-367.15 2798.59,-370.73"/>
</g>
<!-- N52 -->
<g id="node49" class="node">
<title>N52</title>
<polygon fill="none" stroke="black" points="1790,-252 1734,-252 1734,-216 1790,-216 1790,-252"/>
<text text-anchor="middle" x="1762" y="-230.3" font-family="Times,serif" font-size="14.00">Idcall</text>
</g>
<!-- N53 -->
<g id="node50" class="node">
<title>N53</title>
<polygon fill="none" stroke="black" points="1799,-144 1725,-144 1725,-108 1799,-108 1799,-144"/>
<text text-anchor="middle" x="1762" y="-122.3" font-family="Times,serif" font-size="14.00">Croexpr</text>
</g>
<!-- N52&#45;&gt;N53 -->
<g id="edge49" class="edge">
<title>N52&#45;&gt;N53</title>
<path fill="none" stroke="black" d="M1762,-215.97C1762,-199.38 1762,-173.88 1762,-154.43"/>
<polygon fill="black" stroke="black" points="1765.5,-154.34 1762,-144.34 1758.5,-154.34 1765.5,-154.34"/>
</g>
<!-- N52&#45;&gt;col -->
<g id="edge47" class="edge">
<title>N52&#45;&gt;col</title>
<path fill="none" stroke="black" d="M1733.85,-224.54C1722.77,-221.47 1709.87,-218.21 1698,-216 1400.84,-160.64 1035.84,-135.88 920.05,-129.05"/>
<polygon fill="black" stroke="black" points="920.14,-125.55 909.95,-128.46 919.73,-132.54 920.14,-125.55"/>
</g>
<!-- N54 -->
<g id="node51" class="node">
<title>N54</title>
<polygon fill="none" stroke="black" points="1789,-36 1735,-36 1735,0 1789,0 1789,-36"/>
<text text-anchor="middle" x="1762" y="-14.3" font-family="Times,serif" font-size="14.00">i</text>
</g>
<!-- N53&#45;&gt;N54 -->
<g id="edge48" class="edge">
<title>N53&#45;&gt;N54</title>
<path fill="none" stroke="black" d="M1762,-107.97C1762,-91.38 1762,-65.88 1762,-46.43"/>
<polygon fill="black" stroke="black" points="1765.5,-46.34 1762,-36.34 1758.5,-46.34 1765.5,-46.34"/>
</g>
<!-- N55 -->
<g id="node52" class="node">
<title>N55</title>
<polygon fill="none" stroke="black" points="1662,-252 1608,-252 1608,-216 1662,-216 1662,-252"/>
<text text-anchor="middle" x="1635" y="-230.3" font-family="Times,serif" font-size="14.00">j</text>
</g>
<!-- N51&#45;&gt;N52 -->
<g id="edge50" class="edge">
<title>N51&#45;&gt;N52</title>
<path fill="none" stroke="black" d="M1762,-323.97C1762,-307.38 1762,-281.88 1762,-262.43"/>
<polygon fill="black" stroke="black" points="1765.5,-262.34 1762,-252.34 1758.5,-262.34 1765.5,-262.34"/>
</g>
<!-- N51&#45;&gt;N55 -->
<g id="edge51" class="edge">
<title>N51&#45;&gt;N55</title>
<path fill="none" stroke="black" d="M1741.6,-323.97C1720.52,-306.38 1687.46,-278.78 1663.74,-258.99"/>
<polygon fill="black" stroke="black" points="1665.7,-256.06 1655.78,-252.34 1661.21,-261.44 1665.7,-256.06"/>
</g>
<!-- N49 -->
<g id="node56" class="node">
<title>N49</title>
<polygon fill="none" stroke="black" points="2775,-576 2721,-576 2721,-540 2775,-540 2775,-576"/>
<text text-anchor="middle" x="2748" y="-554.3" font-family="Times,serif" font-size="14.00">print</text>
</g>
<!-- N49&#45;&gt;N50 -->
<g id="edge55" class="edge">
<title>N49&#45;&gt;N50</title>
<path fill="none" stroke="black" d="M2748,-539.97C2748,-523.38 2748,-497.88 2748,-478.43"/>
<polygon fill="black" stroke="black" points="2751.5,-478.34 2748,-468.34 2744.5,-478.34 2751.5,-478.34"/>
</g>
<!-- N44&#45;&gt;N45 -->
<g id="edge57" class="edge">
<title>N44&#45;&gt;N45</title>
<path fill="none" stroke="black" d="M2712.08,-649.81C2745.2,-631.24 2801.38,-599.73 2838.08,-579.14"/>
<polygon fill="black" stroke="black" points="2839.96,-582.1 2846.97,-574.16 2836.54,-576 2839.96,-582.1"/>
</g>
<!-- N44&#45;&gt;N46 -->
<g id="edge58" class="edge">
<title>N44&#45;&gt;N46</title>
<path fill="none" stroke="black" d="M2657.92,-649.81C2624.8,-631.24 2568.62,-599.73 2531.92,-579.14"/>
<polygon fill="black" stroke="black" points="2533.46,-576 2523.03,-574.16 2530.04,-582.1 2533.46,-576"/>
</g>
<!-- N44&#45;&gt;N49 -->
<g id="edge59" class="edge">
<title>N44&#45;&gt;N49</title>
<path fill="none" stroke="black" d="M2695.12,-647.97C2705.21,-630.99 2720.84,-604.7 2732.49,-585.09"/>
<polygon fill="black" stroke="black" points="2735.59,-586.73 2737.69,-576.34 2729.58,-583.15 2735.59,-586.73"/>
</g>
<!-- j -->
<g id="node73" class="node">
<title>j</title>
<ellipse fill="none" stroke="black" cx="2622" cy="-558" rx="27" ry="18"/>
<text text-anchor="middle" x="2622" y="-554.3" font-family="Times,serif" font-size="14.00">j</text>
</g>
<!-- N44&#45;&gt;j -->
<g id="edge56" class="edge">
<title>N44&#45;&gt;j</title>
<path fill="none" stroke="black" d="M2674.88,-647.97C2664.55,-630.59 2648.41,-603.44 2636.68,-583.7"/>
<polygon fill="black" stroke="black" points="2639.6,-581.76 2631.48,-574.95 2633.58,-585.33 2639.6,-581.76"/>
</g>
<!-- N59 -->
<g id="node60" class="node">
<title>N59</title>
<polygon fill="none" stroke="black" points="2395,-576 2341,-576 2341,-540 2395,-540 2395,-576"/>
<text text-anchor="middle" x="2368" y="-554.3" font-family="Times,serif" font-size="14.00">print</text>
</g>
<!-- N58&#45;&gt;N59 -->
<g id="edge62" class="edge">
<title>N58&#45;&gt;N59</title>
<path fill="none" stroke="black" d="M2519.08,-647.97C2487.7,-629.49 2437.56,-599.96 2403.73,-580.04"/>
<polygon fill="black" stroke="black" points="2405.47,-577.01 2395.08,-574.95 2401.92,-583.04 2405.47,-577.01"/>
</g>
<!-- N60 -->
<g id="node59" class="node">
<title>N60</title>
<polygon fill="none" stroke="black" points="2393,-468 2339,-468 2339,-432 2393,-432 2393,-468"/>
<text text-anchor="middle" x="2366" y="-446.3" font-family="Times,serif" font-size="14.00">1</text>
</g>
<!-- N59&#45;&gt;N60 -->
<g id="edge61" class="edge">
<title>N59&#45;&gt;N60</title>
<path fill="none" stroke="black" d="M2367.68,-539.97C2367.37,-523.38 2366.88,-497.88 2366.52,-478.43"/>
<polygon fill="black" stroke="black" points="2370.02,-478.27 2366.33,-468.34 2363.02,-478.4 2370.02,-478.27"/>
</g>
<!-- N38&#45;&gt;N39 -->
<g id="edge65" class="edge">
<title>N38&#45;&gt;N39</title>
<path fill="none" stroke="black" d="M2397.47,-863.97C2375.14,-846.3 2340.04,-818.54 2315,-798.73"/>
<polygon fill="black" stroke="black" points="2316.94,-795.8 2306.92,-792.34 2312.59,-801.29 2316.94,-795.8"/>
</g>
<!-- N38&#45;&gt;N40 -->
<g id="edge66" class="edge">
<title>N38&#45;&gt;N40</title>
<path fill="none" stroke="black" d="M2417.71,-863.97C2416.46,-847.38 2414.54,-821.88 2413.07,-802.43"/>
<polygon fill="black" stroke="black" points="2416.55,-802.05 2412.31,-792.34 2409.57,-802.58 2416.55,-802.05"/>
</g>
<!-- N38&#45;&gt;N43 -->
<g id="edge67" class="edge">
<title>N38&#45;&gt;N43</title>
<path fill="none" stroke="black" d="M2446.29,-869.66C2489.23,-851.81 2573.13,-816.93 2626.22,-794.86"/>
<polygon fill="black" stroke="black" points="2627.87,-797.96 2635.76,-790.89 2625.19,-791.5 2627.87,-797.96"/>
</g>
<!-- i -->
<g id="node74" class="node">
<title>i</title>
<ellipse fill="none" stroke="black" cx="2537" cy="-774" rx="27" ry="18"/>
<text text-anchor="middle" x="2537" y="-770.3" font-family="Times,serif" font-size="14.00">i</text>
</g>
<!-- N38&#45;&gt;i -->
<g id="edge64" class="edge">
<title>N38&#45;&gt;i</title>
<path fill="none" stroke="black" d="M2437.96,-863.97C2458.61,-845.41 2491.67,-815.72 2513.84,-795.8"/>
<polygon fill="black" stroke="black" points="2516.38,-798.23 2521.48,-788.94 2511.7,-793.02 2516.38,-798.23"/>
</g>
<!-- N62 -->
<g id="node64" class="node">
<title>N62</title>
<polygon fill="none" stroke="black" points="2186,-792 2132,-792 2132,-756 2186,-756 2186,-792"/>
<text text-anchor="middle" x="2159" y="-770.3" font-family="Times,serif" font-size="14.00">print</text>
</g>
<!-- N61&#45;&gt;N62 -->
<g id="edge70" class="edge">
<title>N61&#45;&gt;N62</title>
<path fill="none" stroke="black" d="M2206.84,-863.97C2197.76,-847.07 2183.7,-820.94 2173.17,-801.36"/>
<polygon fill="black" stroke="black" points="2176.14,-799.49 2168.32,-792.34 2169.98,-802.81 2176.14,-799.49"/>
</g>
<!-- N63 -->
<g id="node63" class="node">
<title>N63</title>
<polygon fill="none" stroke="black" points="2186,-684 2132,-684 2132,-648 2186,-648 2186,-684"/>
<text text-anchor="middle" x="2159" y="-662.3" font-family="Times,serif" font-size="14.00">1</text>
</g>
<!-- N62&#45;&gt;N63 -->
<g id="edge69" class="edge">
<title>N62&#45;&gt;N63</title>
<path fill="none" stroke="black" d="M2159,-755.97C2159,-739.38 2159,-713.88 2159,-694.43"/>
<polygon fill="black" stroke="black" points="2162.5,-694.34 2159,-684.34 2155.5,-694.34 2162.5,-694.34"/>
</g>
<!-- N65 -->
<g id="node66" class="node">
<title>N65</title>
<polygon fill="none" stroke="black" points="2542,-1116 2486,-1116 2486,-1080 2542,-1080 2542,-1116"/>
<text text-anchor="middle" x="2514" y="-1094.3" font-family="Times,serif" font-size="14.00">Idcall</text>
</g>
<!-- N64&#45;&gt;N65 -->
<g id="edge78" class="edge">
<title>N64&#45;&gt;N65</title>
<path fill="none" stroke="black" d="M2394.81,-1187.97C2418.58,-1170.23 2456,-1142.3 2482.56,-1122.47"/>
<polygon fill="black" stroke="black" points="2484.85,-1125.13 2490.77,-1116.34 2480.66,-1119.52 2484.85,-1125.13"/>
</g>
<!-- try -->
<g id="node77" class="node">
<title>try</title>
<ellipse fill="none" stroke="black" cx="2556" cy="-990" rx="27" ry="18"/>
<text text-anchor="middle" x="2556" y="-986.3" font-family="Times,serif" font-size="14.00">try</text>
</g>
<!-- N65&#45;&gt;try -->
<g id="edge77" class="edge">
<title>N65&#45;&gt;try</title>
<path fill="none" stroke="black" d="M2520.75,-1079.97C2527.46,-1063.03 2537.86,-1036.79 2545.62,-1017.2"/>
<polygon fill="black" stroke="black" points="2548.98,-1018.23 2549.41,-1007.64 2542.47,-1015.65 2548.98,-1018.23"/>
</g>
</g>
</svg>
